<?xml version="1.0" encoding="utf-8"?>
<!-- Generator: Adobe Illustrator 26.0.3, SVG Export Plug-In . SVG Version: 6.00 Build 0)  -->
<svg version="1.1" id="Layer_1" xmlns="http://www.w3.org/2000/svg" xmlns:xlink="http://www.w3.org/1999/xlink" x="0px" y="0px"
	 viewBox="0 0 198.4 198.4" style="enable-background:new 0 0 198.4 198.4;" xml:space="preserve">
<style type="text/css">
	.st0{display:none;}
	.st1{display:inline;fill:#FFFFFF;}
	.st2{display:inline;}
	.st3{fill:#425BA8;}
	.st4{fill:#4767AF;}
	.st5{fill:#EAEAEA;}
	.st6{fill:#FFFFFF;}
	.st7{fill:#061F34;}
	.st8{fill:#55A0D7;}
	.st9{fill:#4D4D4D;}
	.st10{fill:#575EA9;}
	.st11{fill:#E8F5E9;}
	.st12{fill:#EC1E79;}
	.st13{fill:#E9E9EB;}
	.st14{fill:#EEBD22;}
	.st15{fill:#E3A027;}
	.st16{fill:#0F1010;}
	.st17{fill:#E24E26;}
	.st18{fill:#F06629;}
</style>
<g id="css" class="st0">
	<circle class="st1" cx="99.4" cy="99.4" r="99.2"/>
	<g class="st2">
		<g id="polygon2989_1_">
			<polygon class="st3" points="154.6,52.1 144.5,164.8 99.3,177.4 54.2,164.8 44.1,52.1 			"/>
		</g>
		<g id="polygon2991_1_">
			<polygon class="st4" points="135.9,157.6 144.5,61.3 99.4,61.3 99.4,167.8 			"/>
		</g>
		<g id="polygon2993_1_">
			<polygon class="st5" points="67.2,103.1 68.4,117 99.4,117 99.4,103.1 			"/>
		</g>
		<g id="polygon2995_1_">
			<polygon class="st5" points="99.4,75.1 99.3,75.1 64.7,75.1 65.9,89 99.4,89 			"/>
		</g>
		<g id="polygon2997_1_">
			<polygon class="st5" points="99.4,153.4 99.4,139 99.3,139.1 83.9,134.9 82.9,123.9 75.4,123.9 69,123.9 71,145.6 99.3,153.4 			
				"/>
		</g>
		<g id="path2999_1_">
			<path d="M70.1,21.5h16.7v7h-9.7v7h9.7v7H70.1V21.5z"/>
		</g>
		<g id="path3001_1_">
			<path d="M90.2,21.5H107v6.1h-9.7v1.2h9.7v14H90.2v-6.4h9.7v-1.2h-9.7V21.5z"/>
		</g>
		<g id="path3003_1_">
			<path d="M110.3,21.5H127v6.1h-9.7v1.2h9.7v14h-16.7v-6.4h9.7v-1.2h-9.7V21.5z"/>
		</g>
		<g id="polygon3005_1_">
			<polygon class="st6" points="116.3,117 114.7,134.9 99.3,139.1 99.3,153.4 127.7,145.6 127.9,143.2 131.1,106.8 131.5,103.1 
				134,75.1 99.3,75.1 99.3,89 118.8,89 117.5,103.1 99.3,103.1 99.3,117 			"/>
		</g>
	</g>
</g>
<g id="ps" class="st0">
	<circle class="st1" cx="99.4" cy="99.6" r="99.2"/>
	<g class="st2">
		<g id="Surfaces_1_">
			<g id="Photo_Surface_1_">
				<g id="Outline_no_shadow_1_">
					<g>
						<path class="st7" d="M59.1,38.7h80.6c12.2,0,22.1,9.9,22.1,22.1v77.5c0,12.2-9.9,22.1-22.1,22.1H59.1
							c-12.2,0-22.1-9.9-22.1-22.1V60.8C37,48.6,46.9,38.7,59.1,38.7z"/>
					</g>
				</g>
			</g>
		</g>
		<g id="Outlined_Mnemonics_Logos_1_">
			<g id="Ps_1_">
				<g>
					<path class="st8" d="M65.1,124.1V70.5c0-0.4,0.2-0.6,0.5-0.6c0.9,0,1.7,0,2.9-0.1c1.2-0.1,2.5-0.1,4-0.1
						c1.4-0.1,2.9-0.1,4.5-0.1c1.6-0.1,3.2-0.1,4.7-0.1c4.3,0,7.8,0.5,10.7,1.6c2.6,0.9,5,2.3,7,4.3c1.7,1.7,3,3.7,3.8,5.9
						c0.8,2.2,1.2,4.4,1.2,6.8c0,4.5-1,8.2-3.1,11.1s-5,5.1-8.4,6.3c-3.5,1.3-7.4,1.8-11.7,1.8c-1.2,0-2.1,0-2.6-0.1
						s-1.2-0.1-2.2-0.1V124c0.1,0.4-0.2,0.7-0.6,0.7c-0.1,0-0.1,0-0.2,0h-9.9C65.3,124.7,65.1,124.5,65.1,124.1z M76.4,80v17.5
						c0.7,0.1,1.4,0.1,2,0.1h2.8c2,0,4.1-0.3,6-0.9c1.7-0.5,3.1-1.5,4.3-2.8c1.1-1.3,1.6-3.1,1.6-5.4c0.1-1.6-0.4-3.2-1.2-4.6
						c-0.9-1.4-2.1-2.4-3.6-3c-1.9-0.8-4-1.1-6.1-1c-1.4,0-2.5,0-3.5,0.1C77.5,79.9,76.8,79.9,76.4,80L76.4,80z"/>
				</g>
				<g>
					<path class="st8" d="M136.9,94.3c-1.6-0.8-3.2-1.4-5-1.8c-1.9-0.4-3.9-0.7-5.8-0.7c-1-0.1-2.1,0.1-3.1,0.4
						c-0.7,0.2-1.2,0.5-1.6,1c-0.3,0.4-0.4,0.9-0.4,1.4s0.2,0.9,0.5,1.4c0.5,0.6,1.1,1,1.8,1.4c1.2,0.6,2.4,1.2,3.7,1.7
						c2.8,0.9,5.5,2.2,8,3.8c1.7,1.1,3.1,2.5,4.1,4.3c0.8,1.7,1.2,3.5,1.2,5.4c0.1,2.4-0.7,4.9-2,6.9c-1.5,2.1-3.5,3.7-5.8,4.6
						c-2.5,1.1-5.7,1.7-9.4,1.7c-2.4,0-4.7-0.2-7.1-0.7c-1.8-0.3-3.6-0.9-5.3-1.7c-0.4-0.2-0.6-0.6-0.6-1v-9.1
						c0-0.2,0.1-0.4,0.2-0.5c0.2-0.1,0.3-0.1,0.5,0.1c2,1.2,4.2,2,6.5,2.5c2,0.5,4.1,0.8,6.1,0.8s3.4-0.3,4.3-0.7
						c0.8-0.4,1.4-1.2,1.4-2.2c0-0.7-0.4-1.4-1.2-2.1s-2.5-1.5-5.1-2.4c-2.7-0.9-5.1-2.2-7.4-3.7c-1.6-1.1-3-2.7-4-4.4
						c-0.8-1.7-1.2-3.5-1.2-5.3c0-2.2,0.6-4.4,1.8-6.3c1.3-2.1,3.2-3.7,5.5-4.8c2.4-1.2,5.5-1.8,9.2-1.8c2.1,0,4.3,0.2,6.5,0.5
						c1.6,0.2,3.1,0.6,4.5,1.2c0.2,0.1,0.4,0.3,0.5,0.5s0.1,0.4,0.1,0.6v8.5c0,0.2-0.1,0.4-0.3,0.5
						C137.3,94.4,137.1,94.4,136.9,94.3z"/>
				</g>
			</g>
		</g>
	</g>
</g>
<g id="Layer_5" class="st0">
	<g class="st2">
		<circle class="st6" cx="99.4" cy="99.4" r="99.2"/>
	</g>
	<g class="st2">
		<path class="st9" d="M76.1,131.2c0.7,0,1.3,0,1.8,0s1.1,0.1,1.9,0.1c-0.5,2-1,3.9-1.6,5.7c-0.1,0.3-0.8,0.6-1.2,0.6
			c-6.2,0-12.5,0.1-18.7-0.2c-5.1-0.2-8.6-3.3-9.1-8.4c-0.8-7.9,1.1-15.3,7.4-20.6c5.2-4.4,11.4-4.6,17.5-1.9
			c5.1,2.3,7.2,8.2,5.4,14.6c-0.8,2.9-1.9,5.7-2.8,8.5C76.5,130,76.4,130.5,76.1,131.2z M64.6,131L64.6,131c1,0,2,0,2.9,0
			c1.1,0.1,1.7-0.3,2-1.4c0.3-1.5,0.9-2.9,1.2-4.4c0.6-2.7,1.4-5.4,1.6-8.1c0.2-2.4-1.2-4.2-3.3-4.9c-3.7-1.3-7.8,0.1-9.8,3.4
			c-2,3.4-2.8,7.1-2.5,10.9c0.2,2.7,2,4.3,4.7,4.4C62.6,131,63.6,131,64.6,131z"/>
		<path class="st10" d="M132.7,82.3c-1.3,1.7-2.4,3.5-3.8,5.1c-5.9,6.5-13.4,9.1-22,9.1C91.1,96.6,78,84.4,74.6,71.4
			c-2.4-9.2-0.7-17.4,6.1-24.3C76.1,63.2,82,75.4,95.4,83.8c12.3,7.7,25,7.6,36.9-1.7C132.4,82.2,132.6,82.2,132.7,82.3z"/>
		<path class="st9" d="M115,127.2c-0.3,2.9,0.3,3.9,3,4c3.4,0.2,6.7,0.2,10.1,0.2c0.6,0,1.3,0,2.2,0c-0.4,2-0.7,3.8-1.1,5.6
			c-0.1,0.3-0.6,0.7-0.9,0.7c-4.7-0.1-9.5,0.1-14.2-0.4c-4.4-0.4-6.5-3.2-6.4-7.6c0-4,1-7.7,2.7-11.3c2.1-4.5,5.9-6.4,10.7-6.8
			c1.2-0.1,2.4-0.1,3.6,0c5.9,0.2,8.8,3.5,8.1,9.4c-0.2,1.6-0.6,3.1-0.8,4.6c-0.2,1.2-0.8,1.6-2,1.6c-4.3-0.1-8.7,0-13,0
			C116.3,127.2,115.7,127.2,115,127.2z M116.3,121.8c0.4,0,0.7,0.1,1.1,0.1c2.4,0,4.9,0,7.3-0.1c0.4,0,0.9-0.7,1-1.1
			c0.1-1.2-0.4-2.1-1.5-2.6C121.6,117,116.5,117.8,116.3,121.8z"/>
		<path class="st9" d="M108,111.9c-0.7,3.2-1.3,6.2-1.9,9.1c-1.1,5-2.2,10.1-3.2,15.1c-0.2,1-0.6,1.4-1.6,1.4
			c-4.1-0.1-8.2,0-12.2-0.1s-6.3-2.3-6.5-6.2c-0.1-2,0.1-4,0.4-6c0.7-4,1.7-7.9,2.5-11.9c0.2-1,0.5-1.4,1.6-1.4c1.7,0.1,3.5,0,5.5,0
			c-0.5,2.3-0.9,4.4-1.3,6.5c-0.6,2.9-1.2,5.7-1.7,8.6c-0.6,3.2,0.4,4.3,3.7,4.3c3.9,0,3.9,0,4.8-3.9c1-4.7,2.1-9.4,3.1-14.1
			c0.2-1.1,0.6-1.5,1.7-1.4C104.4,112,106.1,111.9,108,111.9z"/>
		<path class="st10" d="M134.4,66.1c-1,2.6-2.7,4.7-4.7,6.4c-4.1,3.5-8.9,4.7-14.2,4.8c-11.8,0.2-21.7-9.4-23.6-19.1
			c-1.1-5.7,0.4-12.1,4.2-15.8c-2.8,12.5,2.3,21.3,13,26.9C117.9,73.9,126.7,73.2,134.4,66.1z"/>
		<path class="st9" d="M152.6,119.8c2.4,0,4.5-0.1,6.6,0c0.4,0,1,0.6,1.2,1c0.4,0.9,0.5,2,0.9,3.3c0.5-0.7,0.9-1.1,1.2-1.5
			c2.9-4.3,5.9-8.6,8.8-12.9c0.8-1.2,1.7-1.7,3.1-1.6c2,0.1,4.1,0,6.5,0c-0.4,0.6-0.6,1-0.8,1.4c-4.7,6.2-9.3,12.4-14,18.6
			c-1.7,2.2-3.1,4.4-3.4,7.2c-0.2,1.7-0.9,2.4-2.8,2.2c-1.7-0.2-3.5,0-5.5,0c0.4-1.6,0.8-2.9,1-4.2c0.2-1.2,0.2-2.5-0.1-3.6
			c-0.6-2.7-1.5-5.4-2.3-8.1C152.8,121.1,152.7,120.6,152.6,119.8z"/>
		<path class="st9" d="M159.5,118.3c-2.9,0-5.8,0-8.8,0c-1.7,0-3.4,0.1-5,0c-1.5-0.1-1.8,0.7-2.1,1.9c-1.1,5.3-2.2,10.5-3.2,15.8
			c-0.2,1.3-0.8,1.7-2.1,1.7c-1.6-0.1-3.2,0-5.1,0c0.6-2.7,1-5.1,1.6-7.6c1.2-5.5,2.4-11,3.5-16.5c0.2-1.2,0.7-1.5,1.8-1.5
			c4.6,0,9.2,0,13.9,0C157.6,112.1,159.4,113,159.5,118.3z"/>
		<path class="st9" d="M46.4,119.8c-1.6,7.1-3.1,13.8-4.6,20.5c-0.3,1.1-0.8,2.2-1.3,3.3c-1.3,2.9-3.7,4.2-6.7,4.4
			c-1.6,0.1-3.2,0-4.7,0c-0.9,0-1.1-0.4-0.9-1.2s0.4-1.6,0.5-2.4c0.3-1.9,0.7-3.2,3.2-2.9c1.5,0.2,2.4-1.3,2.8-2.6
			c0.7-2.3,1.2-4.7,1.8-7.1c0.8-3.5,1.6-7.1,2.3-10.6c0.2-0.9,0.6-1.4,1.7-1.4C42.4,119.9,44.2,119.8,46.4,119.8z"/>
		<path class="st10" d="M109.6,38.5c-1.5,6.7,0.9,11.8,6.1,15.5c5.2,3.6,10.8,4.6,16.6,1c-1.1,3-5.3,5.3-9.6,5.4
			c-6.2,0.2-12.2-3.6-14.7-9.3C105.9,46.7,106.5,41.7,109.6,38.5z"/>
		<path class="st9" d="M39.6,118.1c0.4-2,0.8-3.8,1.2-5.6c0.1-0.3,0.6-0.6,0.9-0.6c2,0,4.1,0,6.4,0c-0.4,2-0.8,3.8-1.3,5.5
			c-0.1,0.3-0.5,0.6-0.8,0.6C44,118.1,42,118.1,39.6,118.1z"/>
	</g>
</g>
<circle class="st11" cx="99.4" cy="99.4" r="99.2"/>
<path class="st12" d="M44.4,150c-0.8-0.1-1.5-0.2-2.3-0.4c-3.2-0.8-4.8-3.1-5.6-5.9c-1.5-5.4,0.1-10.3,3.7-14.4
	c5-5.6,11.5-9.2,18-12.7c0.5-0.2,0.9-0.5,1.7-0.9c-2.1-1.5-4-2.9-5.9-4.3c-3.9-2.8-7.9-5.5-11.7-8.5c-4.1-3.3-7.7-7.1-9.9-12.1
	c-1.7-3.9-1.5-7.8,0.1-11.6c2.7-6.7,7.3-12,12.7-16.7c5.3-4.6,11.3-8.4,17.6-11.6c5.9-3,11.9-5.7,18.3-7.6c6.9-2.1,13.9-3,21.1-2.2
	c4.7,0.5,9.1,1.6,13.2,3.9c5.3,2.9,8.5,8.6,8,14.8s-3.1,11.5-7,16.3c-4,4.8-8.7,8.5-14.5,10.9c-5,2-10.2,3.4-15.6,3.9
	c-3.5,0.3-7,0.3-10.5-0.3c-4.2-0.8-7.7-2.9-10.1-6.4c-0.4-0.6-0.5-1.4-0.7-2.2c0-0.2,0.2-0.6,0.4-0.7c0.2-0.1,0.7,0,0.8,0.1
	c3.7,4,8.4,5.1,13.6,4.8c6.2-0.3,12.1-1.9,17.7-4.7c5.5-2.7,10.3-6.3,13.9-11.2c2.5-3.4,4.3-7.2,3.9-11.6c-0.3-3.2-2-5.4-4.9-6.7
	c-5.3-2.5-11-2.5-16.7-1.9c-5.7,0.6-11.1,2-16.3,4.2c-4.5,1.9-8.9,4.2-13.3,6.5c-5.4,2.9-10.3,6.4-14.6,10.7
	c-4.2,4.2-7.3,9-7.4,15.1c-0.1,4.2,1.8,7.7,4.7,10.4c3.4,3.2,7.2,6.1,10.8,9.2c2.2,1.9,4.4,3.7,6.5,5.7c0.7,0.6,1.2,0.8,2.1,0.3
	c4.1-2.3,8.3-4.5,12.3-6.8c0.8-0.4,1.4-1.1,2-1.8c2.7-3.2,5.9-5.9,10-7.2c3.3-1,6.1,0,6.7,4.2c0.2,1.5,0,3,0,4.2
	c1.1,0,2.3-0.2,3.3,0.1c1.1,0.3,1.7,1.2,1.4,2.6c-1.2,4.7-2.3,9.3-3.4,14c-0.3,1.4-0.2,2.8-0.3,4.3c0.2,0.1,0.3,0.1,0.5,0.2
	c0.8-1.5,1.6-2.9,2.3-4.4c2.9-6.3,5.8-12.5,8.5-18.9c1.4-3.3,2.6-6.7,3.9-10c0.2-0.6,0.8-1.4,1.3-1.5c2.1-0.3,4.3-0.4,6.4-0.3
	c1.3,0.1,1.7,1,1.1,2.3c-1.7,4.2-2.1,8.4-0.6,12.7c0.4,1,0.9,2,1.5,3.4c2.6-4.8,5.1-9.2,7.4-13.8c1-1.9,1.5-4.1,2.2-6.2
	c0.7-2.2,1.1-2.7,3.4-2.9c1.4-0.1,2.7-0.1,4.1,0c1.5,0.1,2.1,1,1.7,2.4c-0.3,1-0.7,2.1-1,3.1c-1.3,4.7-0.4,9.1,2,13.2
	c0.2,0.4,0.4,0.8,0.8,1.3c0.9-0.3,1.8-0.7,2.7-1c6.6-2.3,13.3-2.8,20-0.2c3.9,1.5,7.2,4,9.2,7.7c1.9,3.6,2.5,7.5,0.3,11.3
	c-0.9,1.6-2.5,3.4-4.2,4.2c-0.6,0.3-2.4,0.6-2.3-0.3c0.1-0.8,1.6-1.6,2.2-2c0.8-0.7,1.4-1.5,1.9-2.4c0.8-1.5,1-3.2,0.6-4.8
	c-0.7-3-2.5-5.3-5.1-7c-3.4-2.2-7.3-3.1-11.4-3.3c-2.4-0.1-4.8-0.1-7.2,0.2c-1.7,0.2-3.3,0.9-5,1.4c1,3.1,1.6,6.1,0.3,9.2
	c-0.9,2.3-2.6,3.7-4.5,5.1c-2.2,1.5-4.5,2.9-7.2,3.3c-1.5,0.2-3.3-0.2-4.1-1.5c-0.6-0.9-0.6-2.1-0.4-3.2c0.8-5.2,4.5-8.4,7.7-12.2
	c0.3-0.3,0.4-1,0.3-1.4c-1.2-3.4-2.5-6.8-3.8-10.2c0,0-0.2,0.2-0.3,0.4c-2.4,4.1-4.7,8.3-7.2,12.3c-0.6,1.1-0.8,1.8-0.3,3.1
	c1.4,3.7,1.7,7.4-0.6,11c-2.9,4.4-9.4,7-14.5,6.5c-0.7-0.1-1.4-0.2-1.9-0.6c-0.8-0.7-0.9-1.9-0.6-2.9c0.4-1,1.1-1.6,1.7-2.4
	c0.7-0.8,1.3-1.7,2-2.6c1.5-1.8,3-3.6,4.4-5.4c2.5-3.1,2.3-3,0.7-6.6c-1-2.2-1.6-4.7-2.3-7.1c-0.2-0.5-0.2-1-0.5-2
	c-0.8,1.9-1.5,3.6-2.2,5.1c-2,4.4-4,8.9-6.2,13.3c-1.9,3.7-3.8,7.5-6.5,10.8c-0.6,0.8-1.3,1.5-2.2,1.9c-1.1,0.5-2.5,0.5-3.5-0.2
	c-1.1-0.8-1.6-2.3-1.7-3.7c-0.1-1.7-0.2-3.4-0.3-5.2c0-0.4,0-0.7,0-1.4c-0.9,1.9-1.6,3.6-2.4,5.2c-1.1,2.3-2,5-4.1,6.5
	c-1.4,1.1-3.4,1.6-5.1,0.9c-1.6-0.6-2.7-2.1-3.4-3.6c-1.7-3.2-2.4-6.7-2.4-10.3c0-1.8,0.2-3.6,0.5-5.4c0.2-0.9,0.4-1.8,0.6-2.7
	c0.1-0.4,0.2-2.3,0.5-2.5c-2.7,1.5-5.2,3-7.9,4.5c1.5,3.3,1.9,6.6,1.8,10c-0.2,9.6-5.7,17.8-14.4,21.6
	C51.9,149.6,48.2,150.4,44.4,150z M63.4,119c-0.3,0.1-0.6,0.1-0.7,0.2c-4.8,2.9-9.6,5.8-13.5,9.9c-2.2,2.4-3.9,5.1-4.1,8.4
	c-0.2,3.4,0.9,4.6,4.4,4.3c1.9-0.2,3.7-0.8,5.3-1.8C61.9,135.6,65.8,127.4,63.4,119z M83.8,128.2c0.7-0.9,1.5-1.8,1.9-2.8
	c2.1-5,4.2-10.1,6.1-15.2c0.8-2.1,1.3-4.3,1.7-6.6c0.3-1.5-0.3-2.1-1.7-1.5c-1.2,0.5-2.5,1.3-3.3,2.2c-5,5.9-7.3,12.7-6.5,20.4
	C82.1,125.9,82.3,127.2,83.8,128.2z M140,113.2c-3,2.8-5,6-5.6,10.1C139.1,122,141.6,117.5,140,113.2z M113.6,128.1
	c3-0.1,7.3-5.2,7.1-8.2C118.4,122.6,116,125.3,113.6,128.1z"/>
<g id="Layer_2_00000023987426753310032530000015962155867359407253_" class="st0">
	<g class="st2">
		<circle class="st6" cx="99.4" cy="99.4" r="99.2"/>
		<g>
			<g id="path118_1_">
				<path class="st6" d="M44.9,52.3v1.4c0,0.8,2.2,25.9,4.9,55.9l4.9,54.5l21.9,6.1c12,3.4,22.2,6.1,22.5,6.2
					c0.3,0,10.5-2.7,22.8-6.1c19.6-5.4,22.2-6.2,22.4-6.9c0.2-0.9,9.8-109.1,9.8-110.2v-0.8H99.4H44.9V52.3z"/>
			</g>
			<g id="path88_1_">
				<path class="st13" d="M76.8,170.6l-22.1-6.2l-0.3-1.6c-0.3-1.5-9.8-108.5-9.8-109.9c0-0.5,5.6-0.6,54.9-0.6
					c52,0,54.9,0,54.9,0.6c0,2.6-9.9,111.1-10.2,111.3c-0.3,0.3-43.1,12.2-44.5,12.4C99.2,176.7,88.9,174,76.8,170.6L76.8,170.6z
					 M113.3,148.8c7.4-2,13.6-3.8,13.7-4s1-8.9,1.9-19.6c0.9-10.6,1.8-20,1.9-20.9l0.2-1.6h-16H99v6.8v6.8h8.7h8.7l-0.2,0.8
					c-0.1,0.5-0.5,4.4-0.8,8.7c-0.4,4.6-0.8,8.1-1.1,8.3c-0.2,0.2-3.8,1.3-7.8,2.4l-7.4,2v6.9c0,4.7,0.1,6.9,0.4,6.9
					C99.7,152.5,105.9,150.8,113.3,148.8L113.3,148.8z M130.9,94.2c-0.2-1.8-2.4-26-2.4-26.9c0-0.6-1.3-0.6-14.5-0.6H99.4v7.1V81
					l6.5,0.3c3.6,0.1,7.4,0.3,8.4,0.5l1.9,0.2l0.5,5.6c0.2,3.1,0.5,6.2,0.7,7l0.2,1.4h6.8h6.8L130.9,94.2z"/>
			</g>
			<g id="path80_1_">
				<path class="st14" d="M76.6,170.2l-21.9-6.1l-4.9-54.5c-2.7-30-4.9-55.1-4.9-55.9v-1.4h54.5h54.5v0.8c0,1.2-9.6,109.3-9.8,110.2
					c-0.1,0.7-2.8,1.5-22.4,6.9c-12.2,3.4-22.4,6.1-22.8,6.1S88.6,173.6,76.6,170.2L76.6,170.2z M113.4,149c7.6-2.1,13.9-4,14-4.2
					s1-9.5,2-20.6s1.9-20.5,1.9-20.8c0.2-0.6-1.1-0.6-23.3-0.6H84.5l1-10.6c0.6-5.8,1-10.6,1-10.6s3.5-0.1,7.7-0.2
					c6.9-0.2,21.1,0.4,21.6,0.8c0.2,0.2,1.3,11.6,1.3,13.2c0,0.8,0.1,0.8,7.1,0.8h7.1l-0.2-1.6c-0.1-0.9-0.7-7.5-1.3-14.8l-1.2-13.3
					l-27.5-0.1c-21.9-0.1-27.5,0-27.5,0.4c0,0.3-0.2,1.9-0.4,3.6c-0.5,4.2-4.1,44.4-4.1,45.5v0.9h23.4h23.4l-0.2,1.4
					c-0.1,0.8-0.5,4.6-0.8,8.6c-0.3,3.9-0.7,7.3-0.8,7.4c-0.3,0.3-14.1,4-15,4c-0.4,0-4-0.9-7.9-2l-7.2-2l-0.3-3.1
					c-0.1-1.7-0.4-4.1-0.5-5.4l-0.2-2.3h-7h-7v1.4c0,2.6,1.7,20,1.9,20.2c0.3,0.3,27,7.8,27.9,7.8C99.4,152.9,105.8,151.2,113.4,149
					L113.4,149z"/>
			</g>
			<g id="path78_1_">
				<path class="st15" d="M76.6,170.2l-21.9-6.1l-4.9-54.5c-2.7-30-4.9-55.1-4.9-55.9v-1.4h54.5h54.5v0.8c0,1.2-9.6,109.3-9.8,110.2
					c-0.1,0.7-2.8,1.5-22.4,6.9c-12.2,3.4-22.4,6.1-22.8,6.1S88.6,173.6,76.6,170.2L76.6,170.2z M117.4,162c9.6-2.7,17.7-5,17.9-5.2
					c0.3-0.4,8.7-91.5,8.6-94.6v-1h-22.3H99.4v2.6v2.6H86.5c-10.1,0-12.9,0.1-12.9,0.5c0,0.3-0.2,1.9-0.4,3.6
					c-0.5,4.2-4.1,44.4-4.1,45.5v0.9h15.1h15.1v10.7c0,8.3-0.1,10.7-0.5,10.7c-0.3,0-3.7-0.9-7.6-2l-7.2-2l-0.3-3.1
					c-0.1-1.7-0.4-4.1-0.5-5.4l-0.2-2.3h-7h-7v1.4c0,4,1.8,20.1,2.2,20.3c0.2,0.2,6.6,2,14.2,4.1l13.8,3.8v6.9
					c0,3.8,0.1,6.9,0.3,6.9S107.8,164.7,117.4,162L117.4,162z M85.4,92.3c0.5-5.8,1-10.6,1.1-10.6c0.1-0.1,3-0.2,6.5-0.3l6.4-0.2V92
					v10.8h-7.5h-7.5L85.4,92.3z"/>
			</g>
			<g id="path76_1_">
				<path class="st16" d="M79.5,39.3v-3.5h5h5V29v-6.8H93h3.5v10.3v10.3H88h-8.5V39.3z M99.8,40v-2.8h4.6c2.5,0,4.6-0.1,4.6-0.2
					s-2.1-2.5-4.6-5.2l-4.6-5v-2.4V22h9.6h9.6v2.8v2.8l-4.5,0.1l-4.5,0.1l4.7,5l4.7,5v2.4v2.4h-9.8h-9.8L99.8,40L99.8,40z"/>
			</g>
		</g>
	</g>
</g>
<g id="Layer_7" class="st0">
	<g class="st2">
		<circle class="st6" cx="99.4" cy="99.4" r="99.2"/>
		<g>
			<g>
				<path d="M54.5,21.5h7v6.9H68v-6.9h7v21h-7v-7h-6.4v7h-7.1 M84.2,28.5H78v-7h19.4v7h-6.2v14h-7 M100.5,21.5h7.3l4.5,7.4l4.5-7.4
					h7.3v21h-7V32.1l-4.9,7.6l-4.9-7.6v10.4h-6.9 M127.6,21.5h7v14.1h9.9v6.9h-16.9"/>
			</g>
			<g>
				<path class="st17" d="M54.2,164.9l-10-112.8h110.5l-10,112.7l-45.3,12.5"/>
			</g>
			<g>
				<path class="st18" d="M99.4,167.8V61.3h45.2l-8.6,96.2"/>
			</g>
			<g>
				<path class="st5" d="M64.7,75.1h34.7V89H79.9l1.3,14.2h18.3V117h-31 M69.1,123.9H83l1,11.1l15.5,4.1v14.4L71,145.6"/>
			</g>
			<g>
				<path class="st6" d="M134,75.1H99.4V89h33.4 M131.5,103.1H99.4V117h17.1l-1.6,18l-15.4,4.1v14.4l28.3-7.9"/>
			</g>
		</g>
	</g>
</g>
</svg>
